<?xml version="1.0" encoding="utf-8"?>
<!-- Generator: Adobe Illustrator 22.1.0, SVG Export Plug-In . SVG Version: 6.00 Build 0)  -->
<svg version="1.1" xmlns="http://www.w3.org/2000/svg" xmlns:xlink="http://www.w3.org/1999/xlink" x="0px" y="0px"
	 viewBox="0 0 44 44" style="enable-background:new 0 0 44 44;" xml:space="preserve">
<style type="text/css">
	.st0{display:none;fill:#383838;}
	.st1{fill:#3C373B;}
	.st2{fill:#558AEF;stroke:#558AEF;stroke-miterlimit:10;}
	.st3{fill:#558AEF;}
</style>
<g id="图层_1">
	<path class="st0" d="M40.2,48.8H7.9c-6.6,0-12-5.4-12-12V10.5c0-6.6,5.4-12,12-12h32.3c6.6,0,12,5.4,12,12v26.2
		C52.2,43.3,46.8,48.8,40.2,48.8z"/>
	<path class="st1" d="M34.9,10.5H20.1l-1.2-1.8c-1.2-2.3-1.5-3.5-3.4-3.5H8.2c-1.9,0-3.4,1.6-3.4,3.5V14v1.8v20.2
		c0,2,1.5,3.5,3.4,3.5h26.6c1.9,0,3.4-1.6,3.4-3.5V14C38.3,12.1,36.8,10.5,34.9,10.5z M6.9,20.2v-4.4V14V8.7c0-0.8,0.6-1.4,1.4-1.4
		h7.3c0.2,0,0.3,0,0.3,0c0,0,0.1,0.1,0.2,0.3c0.2,0.3,0.4,0.7,0.6,1.2c0.1,0.3,0.3,0.6,0.5,0.9l0.1,0.1l0.1,0.1l1.2,1.8l0.6,0.9h1.1
		h14.7c0.7,0,1.4,0.6,1.4,1.4v6.2l0,2.2v13.6c0,0.8-0.6,1.4-1.4,1.4H8.2c-0.7,0-1.4-0.6-1.4-1.4V22.3V20.2z"/>
	<rect x="6.4" y="10.5" class="st1" width="14" height="2.1"/>
	<path class="st2" d="M21.6,29.5c1.7,0.1,3.3-0.5,4.4-2c1.7-2.2,1.2-5.4-1-7.1s-5.3-1.2-7,1c-0.8,1-1.1,2.3-1,3.5
		c0,0.2-0.1,0.3-0.3,0.4c-0.2,0-0.3-0.1-0.4-0.3c-0.1-1.4,0.3-2.8,1.1-4c1.9-2.5,5.4-3,7.9-1.1s3,5.5,1.1,8
		c-1.2,1.6-3.1,2.4-4.9,2.3c-0.2,0-0.4-0.2-0.4-0.4C21.2,29.6,21.4,29.4,21.6,29.5"/>
	<path class="st3" d="M19.3,24.4l-5.2,0l2.6,3.7L19.3,24.4z"/>
</g>
<g id="图层_2">
</g>
</svg>
