<?xml version="1.0" encoding="utf-8"?>
<!-- Generator: Adobe Illustrator 22.1.0, SVG Export Plug-In . SVG Version: 6.00 Build 0)  -->
<svg version="1.1" id="图层_1" xmlns="http://www.w3.org/2000/svg" xmlns:xlink="http://www.w3.org/1999/xlink" x="0px" y="0px"
	 viewBox="0 0 44 44" style="enable-background:new 0 0 44 44;" xml:space="preserve">
<style type="text/css">
	.st0{fill:#3C373B;}
	.st1{fill:#558AEF;}
</style>
<path class="st0" d="M34.8,6.5h-1.3c-0.5,0-0.9,0.4-0.9,1c0,0.6,0.4,1,0.9,1h1.3c0.9,0,1.8,0.8,1.8,1.8v25.6c0,1-0.8,1.8-1.8,1.8
	H7.6c-0.9,0-1.8-0.8-1.8-1.8V10.2c0-1,0.8-1.8,1.8-1.8h1.7c0.5,0,0.9-0.4,0.9-1c0-0.6-0.4-1-0.9-1H7.6c-2,0-3.6,1.6-3.6,3.6v25.6
	c0,2,1.5,3.6,3.6,3.6h27.2c2,0,3.6-1.6,3.6-3.6V10.1C38.4,8.1,36.7,6.5,34.8,6.5z"/>
<path class="st1" d="M12,19.2h20.2c0.5,0,0.9-0.4,0.9-1c0-0.6-0.4-1-0.9-1H12c-0.5,0-0.9,0.4-0.9,1C11.1,18.8,11.4,19.2,12,19.2z
	 M12,28.7h13.2c0.5,0,0.9-0.4,0.9-1s-0.4-1-0.9-1H12c-0.5,0-0.9,0.4-0.9,1S11.4,28.7,12,28.7z"/>
<path class="st0" d="M13.4,10.4V4.5c0-0.5-0.4-0.9-1-0.9c-0.6,0-1,0.4-1,0.9v5.9c0,0.5,0.4,0.9,1,0.9C13,11.4,13.4,10.9,13.4,10.4z"
	/>
<path class="st0" d="M31.3,10.4V4.5c0-0.5-0.4-0.9-1-0.9s-1,0.4-1,0.9v5.9c0,0.5,0.4,0.9,1,0.9S31.3,10.9,31.3,10.4z"/>
<path class="st0" d="M16,8.4h10.9c0.5,0,0.9-0.4,0.9-1s-0.4-1-0.9-1H16c-0.5,0-0.9,0.4-0.9,1S15.5,8.4,16,8.4z"/>
</svg>
