<?xml version="1.0" encoding="utf-8"?>
<!-- Generator: Adobe Illustrator 22.1.0, SVG Export Plug-In . SVG Version: 6.00 Build 0)  -->
<svg version="1.1" id="图层_1" xmlns="http://www.w3.org/2000/svg" xmlns:xlink="http://www.w3.org/1999/xlink" x="0px" y="0px"
	 viewBox="0 0 50 50" style="enable-background:new 0 0 50 50;" xml:space="preserve">
<style type="text/css">
	.st0{fill:none;stroke:#000000;stroke-width:2;stroke-linecap:round;stroke-miterlimit:10;}
</style>
<path d="M24.6,26.2h-6.5c-0.5,0-1-0.4-1-0.9s0.4-0.9,0.9-0.9l0,0h6.5v-6.5c0-0.5,0.4-0.9,0.9-0.9s0.9,0.4,0.9,1v6.5h6.5
	c0.5,0,1,0.4,1,0.9s-0.4,0.9-0.9,0.9l0,0h-6.5v6.5c0,0.5-0.4,0.9-0.9,0.9l0,0c-0.5,0-0.9-0.4-0.9-1C24.5,32.7,24.6,26.2,24.6,26.2z"
	/>
<circle cx="39.4" cy="12.7" r="1"/>
<path class="st0" d="M42.5,16.4c1.4,2.7,2.2,5.8,2.2,9.1c0,10.9-8.8,19.8-19.8,19.8S5.2,36.4,5.2,25.5S14.1,5.8,25,5.8
	c4.1,0,7.9,1.2,11,3.4"/>
</svg>
