<?xml version="1.0" encoding="utf-8"?>
<!-- Generator: Adobe Illustrator 22.1.0, SVG Export Plug-In . SVG Version: 6.00 Build 0)  -->
<svg version="1.1" id="图层_1" xmlns="http://www.w3.org/2000/svg" xmlns:xlink="http://www.w3.org/1999/xlink" x="0px" y="0px"
	 viewBox="0 0 44 44" style="enable-background:new 0 0 44 44;" xml:space="preserve">
<style type="text/css">
	.st0{fill:#D95959;}
	.st1{fill:none;stroke:#D95959;stroke-linecap:round;stroke-miterlimit:10;}
</style>
<path class="st0" d="M17.8,28.5c-0.2-0.6-0.3-1.2-0.3-1.8c0-0.3,0.1-0.6,0.1-0.9c-3.7-0.4-6.4-1.7-6.4-3.4v2.3
	C11.2,26.5,14,28,17.8,28.5z"/>
<path class="st0" d="M27.5,19.4c1.6-0.7,2.7-1.7,2.7-2.8v-1.3c0-2.2-4.2-4-9.5-4c-5.2,0-9.5,1.8-9.5,4v1.3c0,2.2,4.2,4,9.5,4
	c0.2,0,0.4,0,0.6,0c1.4-0.8,3.1-1.3,4.9-1.3C26.6,19.3,27.1,19.4,27.5,19.4z"/>
<path class="st0" d="M18,24.5c0.3-0.9,0.9-1.8,1.6-2.5c-4.7-0.2-8.4-1.5-8.4-3.6v2.3C11.2,22.5,14.1,24,18,24.5z"/>
<path class="st0" d="M18.7,30.4c-0.1-0.1-0.2-0.3-0.3-0.4c-4.1-0.3-7.2-1.6-7.2-3.5v2.3c0,0.6,0.3,1.2,0.8,1.7
	c1.5,1.4,4.8,2.4,8.6,2.4c0.2,0,0.3,0,0.5,0C20.2,32.1,19.4,31.3,18.7,30.4z"/>
<path class="st0" d="M21.9,25.9h9.6v1.9h-9.6C21.9,27.8,21.9,25.9,21.9,25.9z"/>
<path class="st1" d="M32.9,37.1c-3.1,2.2-6.8,3.5-10.9,3.5C11.7,40.6,3.4,32.3,3.4,22S11.7,3.4,22,3.4S40.6,11.7,40.6,22
	c0,4.3-1.5,8.3-4,11.5"/>
<path class="st0" d="M25.7,31.7v-9.6h1.9v9.6C27.7,31.7,25.7,31.7,25.7,31.7z"/>
</svg>
