<?xml version="1.0" encoding="utf-8"?>
<!-- Generator: Adobe Illustrator 22.1.0, SVG Export Plug-In . SVG Version: 6.00 Build 0)  -->
<svg version="1.1" id="图层_1" xmlns="http://www.w3.org/2000/svg" xmlns:xlink="http://www.w3.org/1999/xlink" x="0px" y="0px"
	 viewBox="0 0 44 44" style="enable-background:new 0 0 44 44;" xml:space="preserve">
<style type="text/css">
	.st0{fill:#3C373B;}
	.st1{fill:#558AEF;}
</style>
<path class="st0" d="M31.2,8.6l-1.1,2c4.2,2.8,6.9,7.5,6.9,12.9c0,8.6-6.9,15.5-15.5,15.5S6,32.1,6,23.5c0-6,3.4-11.2,8.3-13.8
	l-0.9-2.1c-5.8,2.9-9.7,8.9-9.7,15.8c0,9.8,8,17.8,17.8,17.8s17.8-8,17.8-17.8C39.4,17.2,36.2,11.7,31.2,8.6z"/>
<path class="st0" d="M12.8,8.7c0,0.6,0.5,1.1,1.1,1.1c0.6,0,1.1-0.5,1.1-1.1S14.6,7.6,14,7.6C13.3,7.6,12.8,8.1,12.8,8.7L12.8,8.7z"
	/>
<path class="st0" d="M29.5,9.6c0,0.6,0.5,1.1,1.1,1.1c0.6,0,1.1-0.5,1.1-1.1s-0.5-1.1-1.1-1.1C30,8.4,29.5,8.9,29.5,9.6z"/>
<path class="st1" d="M22.3,22.8c-0.6,0-1.1-0.5-1.1-1.1V3.8c0-0.6,0.5-1.1,1.1-1.1s1.1,0.5,1.1,1.1v17.8
	C23.4,22.3,22.9,22.8,22.3,22.8z"/>
</svg>
