<?xml version="1.0" encoding="utf-8"?>
<!-- Generator: Adobe Illustrator 22.1.0, SVG Export Plug-In . SVG Version: 6.00 Build 0)  -->
<svg version="1.1" id="图层_1" xmlns="http://www.w3.org/2000/svg" xmlns:xlink="http://www.w3.org/1999/xlink" x="0px" y="0px"
	 viewBox="0 0 44 44" style="enable-background:new 0 0 44 44;" xml:space="preserve">
<style type="text/css">
	.st0{fill:none;stroke:#3C373B;stroke-width:2;stroke-linecap:round;stroke-miterlimit:10;}
	.st1{fill:#558AEF;}
</style>
<path class="st0" d="M37,33c-2.2,3.1-5.4,5.4-9.3,6.7c-9.8,3.1-20.3-2.3-23.4-12.1S6.6,7.4,16.4,4.3s20.3,2.3,23.4,12.1
	c1.3,4.1,1.1,8.4-0.3,12.1"/>
<path class="st1" d="M19.1,16.6c0-0.4,0.4-0.8,0.8-0.8h10.9c0.5,0,0.8,0.3,0.8,0.8c0,0.4-0.4,0.8-0.8,0.8H20
	C19.5,17.3,19.1,17,19.1,16.6z"/>
<path class="st1" d="M12.5,16.6c0-0.4,0.4-0.8,0.8-0.8h2.9c0.5,0,0.8,0.3,0.8,0.8c0,0.4-0.4,0.8-0.8,0.8h-2.9
	C12.8,17.3,12.5,17,12.5,16.6z"/>
<path class="st1" d="M19.1,22.5c0-0.4,0.4-0.8,0.8-0.8h10.9c0.5,0,0.8,0.3,0.8,0.8c0,0.4-0.4,0.8-0.8,0.8H20
	C19.5,23.3,19.1,22.9,19.1,22.5z"/>
<path class="st1" d="M12.5,22.5c0-0.4,0.4-0.8,0.8-0.8h2.9c0.5,0,0.8,0.3,0.8,0.8c0,0.4-0.4,0.8-0.8,0.8h-2.9
	C12.8,23.3,12.5,22.9,12.5,22.5z"/>
<path class="st1" d="M19.1,28.2c0-0.4,0.4-0.8,0.8-0.8h10.9c0.5,0,0.8,0.3,0.8,0.8c0,0.4-0.4,0.8-0.8,0.8H20
	C19.5,29,19.1,28.6,19.1,28.2z"/>
<path class="st1" d="M12.5,28.2c0-0.4,0.4-0.8,0.8-0.8h2.9c0.5,0,0.8,0.3,0.8,0.8c0,0.4-0.4,0.8-0.8,0.8h-2.9
	C12.8,29,12.5,28.6,12.5,28.2z"/>
</svg>
